<svg xmlns="http://www.w3.org/2000/svg" xmlns:xlink="http://www.w3.org/1999/xlink" width="360" height="144" viewBox="0 0 360 144">
  <defs>
    <clipPath id="clip-custom_1">
      <rect width="360" height="144"/>
    </clipPath>
  </defs>
  <g id="custom_1" data-name="custom – 1" clip-path="url(#clip-custom_1)">
    <rect width="360" height="144" fill="#110838"/>
    <g id="_-DX-Scanner" data-name="❇️-DX-Scanner" transform="translate(24 29.799)">
      <g id="_01.1-Landing-Page-V1" data-name="01.1-Landing-Page-V1" transform="translate(0 0)">
        <g id="_0-Navbar" data-name="0-Navbar" transform="translate(0 0)">
          <g id="Logo" transform="translate(0 0)">
            <g id="Symbol" transform="translate(0)">
              <path id="Rect-3" d="M61.16,24.868l2.748-2.748L83.577,41.788,64.422,60.943l-2.748-2.748L78.08,41.788ZM58,21.711,41.788,5.5,25.382,21.9l-2.748-2.748L41.788,0,60.751,18.962ZM24.868,61.16l16.92,16.92L58.516,61.352,61.265,64.1,41.788,83.577,22.12,63.908ZM21.711,58l-2.748,2.748L0,41.788,19.476,22.312l2.748,2.748L5.5,41.788Z" transform="translate(0 0)" fill="#39d2da" opacity="0.251"/>
              <path id="Rect-2" d="M50.417,25l2.764-2.764L67.427,36.482,53.694,50.215l-2.764-2.764L61.9,36.482Zm-3.158-3.158L36.482,11.065,25.513,22.034,22.749,19.27,36.482,5.537,50.023,19.078ZM25,50.417,36.482,61.9,47.773,50.609l2.764,2.764L36.482,67.427,22.235,53.18Zm-3.158-3.158-2.764,2.764L5.537,36.482,19.592,22.428l2.764,2.764L11.065,36.482Z" transform="translate(5.306 5.306)" fill="#39d2da" opacity="0.496"/>
              <path id="logo-2" data-name="logo" d="M31.176,42.628l5.789-5.789,2.895,2.895-8.684,8.684-8.684-8.684,2.895-2.895Zm0-23.157,5.789-5.789,2.895,2.895L31.176,25.26l-8.684-8.684,2.895-2.895Zm0,11.585,5.789-5.789,2.895,2.895-8.684,8.684-8.684-8.684,2.895-2.895Zm14.473-2.9L39.86,22.365l2.895-2.895,8.684,8.684-8.684,8.684L39.86,33.944Zm-28.947,0,5.789,5.789L19.6,36.838l-8.684-8.684L19.6,19.47l2.895,2.895Z" transform="translate(10.458 13.111)" fill="#39d2da"/>
            </g>
            <g id="DXScanner" transform="translate(99.873 27.416)">
              <path id="DX" d="M0,22.125V.192H8.4c6.768,0,11.444,4.731,11.444,10.9v.063c0,6.173-4.676,10.966-11.444,10.966ZM4.738,17.77H8.4a6.193,6.193,0,0,0,6.491-6.549v-.063A6.243,6.243,0,0,0,8.4,4.547H4.738Zm17.535,4.355L29.779,10.97,22.58.192h5.537L32.609,7.3,37.192.192h5.384l-7.2,10.716,7.506,11.217H37.346l-4.83-7.52-4.861,7.52Z" transform="translate(0 0.184)" fill="#39d2da"/>
              <path id="SCANNER" d="M32.4,22.622a13.56,13.56,0,0,1-9.137-3.509l2.8-3.415a9.784,9.784,0,0,0,6.429,2.663c1.938,0,3.107-.783,3.107-2.068V16.23c0-1.222-.738-1.849-4.338-2.789-4.338-1.128-7.137-2.35-7.137-6.705V6.674c0-3.979,3.138-6.611,7.537-6.611a12.323,12.323,0,0,1,8,2.789L37.2,6.486a9.995,9.995,0,0,0-5.6-2.162c-1.815,0-2.769.846-2.769,1.911V6.3c0,1.441.923,1.911,4.645,2.883,4.368,1.159,6.829,2.757,6.829,6.58v.063C40.308,20.178,37.047,22.622,32.4,22.622Zm23.724.063a10.973,10.973,0,0,1-11.044-11.28v-.063A11.047,11.047,0,0,1,56.31,0,11.008,11.008,0,0,1,64.8,3.384L61.786,6.925a7.88,7.88,0,0,0-5.507-2.475c-3.63,0-6.245,3.071-6.245,6.831v.063c0,3.76,2.553,6.893,6.245,6.893,2.461,0,3.968-1,5.66-2.569l3.015,3.1A10.921,10.921,0,0,1,56.125,22.685ZM68.5,22.309,77.726.219h4.368l9.229,22.09H86.371L84.4,17.39H75.3l-1.969,4.919Zm8.491-9.18H82.71L79.849,6.016Zm19.263,9.18V.376h4.368l10.09,13.5V.376h4.676V22.309h-4.03L100.927,8.366V22.309Zm25.908,0V.376h4.368l10.09,13.5V.376h4.676V22.309h-4.03L126.835,8.366V22.309Zm25.908,0V.376H164.31V4.669H152.773V9.118h10.152V13.41H152.773v4.606h11.69v4.293Zm22.216,0V.376h9.844A8.489,8.489,0,0,1,186.4,2.6a6.956,6.956,0,0,1,1.846,5.013v.063a6.8,6.8,0,0,1-4.614,6.8l5.26,7.833h-5.537l-4.614-7.019H175.02v7.019Zm4.738-11.28h4.8c2.307,0,3.63-1.253,3.63-3.1V7.865c0-2.068-1.415-3.133-3.722-3.133H175.02Z" transform="translate(22.295 0)" fill="#fff"/>
            </g>
          </g>
        </g>
      </g>
    </g>
  </g>
</svg>
